<svg width="36" height="36" viewBox="0 0 36 36" fill="none" xmlns="http://www.w3.org/2000/svg">
<path d="M18 36C8.0775 36 0 27.9225 0 18C0 8.0775 8.0775 0 18 0C27.9225 0 36 8.0775 36 18C36 27.9225 27.9225 36 18 36ZM33.18 20.463C32.655 20.298 28.425 19.0335 23.604 19.806C25.614 25.332 26.4345 29.832 26.592 30.768C30.042 28.4355 32.496 24.738 33.1845 20.463H33.18ZM24.0075 32.175C23.778 30.825 22.8825 26.127 20.7225 20.52L20.6235 20.55C11.9385 23.5725 8.8335 29.5875 8.5635 30.15C11.1585 32.187 14.4435 33.399 17.9985 33.399C20.1285 33.399 22.1535 32.964 23.9985 32.178L24.0075 32.175ZM6.5775 28.305C6.9255 27.705 11.145 20.7225 19.0755 18.1575C19.278 18.09 19.4805 18.0315 19.683 17.9775C19.293 17.1 18.873 16.227 18.435 15.3675C10.755 17.6625 3.309 17.565 2.634 17.55L2.628 18.018C2.628 21.9675 4.125 25.5735 6.579 28.3005L6.5775 28.305ZM2.9475 14.8725C3.6375 14.8845 9.972 14.9115 17.163 13.0005C14.616 8.4735 11.868 4.6635 11.463 4.1085C7.161 6.1335 3.948 10.0935 2.949 14.8635L2.9475 14.8725ZM14.4 3.078C14.823 3.648 17.6175 7.449 20.133 12.078C25.6005 10.0305 27.918 6.918 28.1925 6.525C25.4775 4.11 21.9075 2.646 18 2.646C16.7625 2.646 15.555 2.796 14.4 3.0735V3.078ZM29.9025 8.3025C29.5755 8.7375 27 12.042 21.3165 14.3625C21.6765 15.0975 22.0215 15.84 22.3365 16.5915C22.4565 16.8615 22.5615 17.1315 22.6665 17.3865C27.7815 16.7415 32.8665 17.7765 33.3765 17.8815C33.3465 14.2515 32.0565 10.9215 29.9115 8.3115L29.9025 8.3025Z" fill="white"/>
</svg>
