<?xml version="1.0" encoding="UTF-8"?>
<svg width="1024px" height="483px" viewBox="0 0 1024 483" version="1.1" xmlns="http://www.w3.org/2000/svg" xmlns:xlink="http://www.w3.org/1999/xlink">
    <!-- Generator: Sketch 44.1 (41455) - http://www.bohemiancoding.com/sketch -->
    <title>Logo</title>
    <desc>Created with Sketch.</desc>
    <defs></defs>
    <g id="v6" stroke="none" stroke-width="1" fill="none" fill-rule="evenodd">
        <g id="Logo" fill="#FCB500">
            <g transform="translate(0.172944, 0.605303)">
                <path d="M301.651285,481.475426 L356.788217,481.475426 L178.394108,0 L0,481.475426 L55.1369314,481.475426 L178.394108,147.548921 L301.651285,481.475426 Z" id="A"></path>
                <path d="M356.788217,0 L1023.82706,0 L1023.82706,481.475426 L356.788217,481.475426 L356.788217,0 Z M356.788217,0 L356.788217,481.475426 L554.429354,481.475426 L356.788217,0 Z M1023.82706,0 L826.185919,481.475426 L1023.82706,481.475426 L1023.82706,0 Z M690.307636,145.102183 L690.307636,481.475426 L826.185919,481.475426 L690.307636,145.102183 Z M690.307636,145.102183 L554.429354,481.475426 L690.307636,481.475426 L690.307636,145.102183 Z M551.95884,336.373243 L687.837122,1.70530257e-13 L551.95884,1.70530257e-13 L551.95884,336.373243 Z M551.95884,336.373243 L551.95884,1.70530257e-13 L416.080558,1.70530257e-13 L551.95884,336.373243 Z M828.656433,336.373243 L964.534715,1.70530257e-13 L828.656433,1.70530257e-13 L828.656433,336.373243 Z M828.656433,336.373243 L828.656433,1.70530257e-13 L692.778151,1.70530257e-13 L828.656433,336.373243 Z" id="W"></path>
            </g>
        </g>
    </g>
</svg>