<svg width="36" height="36" viewBox="0 0 36 36" fill="none" xmlns="http://www.w3.org/2000/svg">
<path d="M0 0V36H36V0H0ZM29.907 8.529L27.9765 10.38C27.8946 10.4423 27.8313 10.5259 27.7935 10.6216C27.7557 10.7173 27.7448 10.8215 27.762 10.923V24.5235C27.7451 24.6247 27.7561 24.7287 27.7939 24.8241C27.8317 24.9195 27.8949 25.0028 27.9765 25.065L29.862 26.916V27.3225H20.379V26.9175L22.332 25.02C22.524 24.828 22.524 24.7725 22.524 24.48V13.485L17.094 27.2775H16.359L10.035 13.485V22.7295C10.009 22.9212 10.0269 23.1163 10.0875 23.3C10.148 23.4838 10.2496 23.6513 10.3845 23.79L12.9255 26.871V27.2775H5.7225V26.8725L8.265 23.79C8.3988 23.6512 8.4981 23.4829 8.5549 23.2987C8.6117 23.1145 8.62441 22.9195 8.592 22.7295V12.0405C8.60697 11.8941 8.5872 11.7462 8.5343 11.6088C8.48139 11.4715 8.39683 11.3485 8.2875 11.25L6.0285 8.529V8.124H13.0395L18.459 20.0085L23.223 8.1225H29.907V8.529V8.529Z" fill="white"/>
</svg>
